<svg width="45" height="21" viewBox="0 0 45 21" fill="none" xmlns="http://www.w3.org/2000/svg"><path d="M21.72 15.768q.024.072.096.192a.32.32 0 0 1 .072.192q.024.072-.048.12a3 3 0 0 1-.096.168q-.048.096.024.168a.3.3 0 0 0-.024.12q0 .096.048.288.072.168.048.288a1 1 0 0 0-.48-.144.5.5 0 0 0-.312.096q-.288.288-.408.336a1.4 1.4 0 0 1-.312-.096 5 5 0 0 1-.216-.096 3 3 0 0 0-.168-.072q-.12-.048-.096-.144l-.888-.216a10 10 0 0 0-.408-.048 5 5 0 0 0-.528-.024v-.024q-2.016.24-3.024.336v-.024l-.288.072a.7.7 0 0 1-.36 0l-2.424.6q-.216 0-.696.048a6 6 0 0 1-.648.048q-.288 0-.576-.072-.12-.168-.504-.216a1 1 0 0 1-.216-.12q-.144-.072-.288-.048a5 5 0 0 1-.192.792 6 6 0 0 0-.12.456 1.3 1.3 0 0 1-.216.576q0 .072-.096.24t-.048.264q-.048.288-.024.384-.504.336-.696.408a6 6 0 0 1-.24-.264.7.7 0 0 0-.36-.24q0-.096-.096-.096a.5.5 0 0 0-.144.024.3.3 0 0 1-.12.072 14 14 0 0 0-.456-.312 3 3 0 0 1-.576-.48 1.4 1.4 0 0 1-.288-.552 3 3 0 0 1-.048-.336.83.83 0 0 0-.144-.408.7.7 0 0 1 .12-.144q.096-.072.072-.144-.12-.024-.12-.072t.048-.144a.32.32 0 0 0 .072-.192q.072-.192.24-.432.168-.264.24-.408.6-3.024.72-5.112-.024-.096.048-.24a.7.7 0 0 0 .072-.264q.024-.096-.12-.096l.096-.336v-.048a.3.3 0 0 0-.096-.216q-.072-.096-.144-.072-.048 0 .024.144-.192.12-.336.384-.12.264-.216.408a5 5 0 0 0-.288.408 6 6 0 0 1-.36.48q-.144.144-.312.096-.024-.024-.024-.072 0-.072.072-.168a.7.7 0 0 0 .12-.144l-.264-.072a.5.5 0 0 1-.264.072.3.3 0 0 0-.168.048q-.048.024-.072.168l.024.024a4 4 0 0 1-.192.48q-.144.288-.072.528 0 .048-.096.192-.096.12 0 .192a4 4 0 0 0-.192.552.5.5 0 0 0 .072-.168q.048-.12.072-.168 0-.024.024-.048l.072-.288q.072-.216.168-.36.072.072.048.12-.192.528-.216.816l.024.024-.024.024a.16.16 0 0 1 .048.12q0 .024-.072.312a1 1 0 0 0-.048.24q0 .168-.096.216 0-.024-.048-.024a1 1 0 0 1-.096.192.6.6 0 0 0-.048.192q0 .048.096.024l-.096.312q.072.072.144.048.096-.048 0-.12v-.048q0-.144.216-.024l-.072.216q-.048.12-.024.192.024.048.144 0 0 .048-.024.168-.024.096.048.072a1 1 0 0 1-.072.24q-.048.096-.072.168a1.5 1.5 0 0 0-.12.264.36.36 0 0 1-.216.216q0 .048.024.24a1 1 0 0 0 .12.336q0 .048-.024.168a1 1 0 0 1-.072.24 6 6 0 0 0-.432.408 4 4 0 0 0-.24.096.44.44 0 0 0-.216.24.67.67 0 0 1-.336.168l-.312.072a.6.6 0 0 1-.408-.144 2.2 2.2 0 0 1-.384-.384q-.264-.336-.504-.48A2.3 2.3 0 0 1 .48 17.4a1 1 0 0 0-.192-.24 1 1 0 0 1-.192-.24A1.3 1.3 0 0 1 0 16.392q0-.456.264-.912.36-.312.408-.624.264-.216.432-.288l.096-.696a2 2 0 0 0 0-.432v-.408q0-.456.144-.6.024.192.144.816.12.6.264 1.128.264-.216.552-.576l.504-.72q.096-.144.504-.72.432-.6.672-1.2a.4.4 0 0 1-.168-.192 2 2 0 0 0-.12-.216 1 1 0 0 0-.12-.216q-.072-.144.024-.12a1.6 1.6 0 0 0-.12-.24 2 2 0 0 1-.144-.36q.072-.072.12-.072a.4.4 0 0 0 .144-.096 1 1 0 0 1-.048-.312v-.24q.048-.048.192-.168a.43.43 0 0 0 .192-.288q.192-.24.672-.624.096-.288.504-.792a9 9 0 0 1 .168-.216q.096-.12.192-.264.192-.216.456-.624t.336-.552l-.168.264q-.336.144-.528.192-.552.144-.768.36-.048-.048-.144-.024-.096 0-.12-.024h-.072a.7.7 0 0 1-.336-.096 4 4 0 0 1-.168-.144 1.45 1.45 0 0 0-.48.456 5 5 0 0 0-.312.576q-.144.312-.24.504l-.288.672a9 9 0 0 1-.36.84q-.144.312-.408.576l.384-1.08q.144-.552.144-1.08 0-1.368-.744-2.736a1.1 1.1 0 0 1-.456-.288 9 9 0 0 0-.24-.264 2 2 0 0 0-.312-.288.74.74 0 0 1-.24-.336l.264-.216q.336-.192.816-.384a6 6 0 0 0 .528-.168q.36-.144.624-.12.12-.048.456-.168a1.5 1.5 0 0 1 .672-.12q.192.072.576.264t.72.192q.408.216.792.504.216.072.432.216.048.072.144.264.12.168.072.336.024.12.024.36-.048-.024-.024.048t.024.096a6 6 0 0 0-.048.6h.024l.984-1.32.384-.552q.624-.936.816-1.32.048-.12.144-.288a.8.8 0 0 0 .096-.336q-.6-.216-1.056-.648.12-.024.624-.144t.96-.12q.528.096.768.192t.672.384l.24.192.096.024a.22.22 0 0 1 .12.168q.048.12.072.144 0 .048.024.264a1 1 0 0 0 .12.36q-.048.24-.048.36 0 .072.048.264a.8.8 0 0 1-.144.336q-.12.168-.168.216a3.6 3.6 0 0 0-.6.672q-.264.384-.504.768-.456.72-.528.816h-.048q-.048 0-.048-.024t.072-.144q.096-.12 0-.168l-1.392 1.8a.6.6 0 0 1-.144.192q-.12.12-.168.192-.384.432-.384.552t.168.12V8.28h.024q.048 0 .12.072.096.072.144.096.144.072.48.168l.216.744q.048.336.048.528a8 8 0 0 1-.072 1.104h.024l.024-.528q.048-.72.048-1.056a5 5 0 0 0-.024-.576q.096.024.096.168.024.12.024.168 0 .36-.048 1.128l-.024.576q-.024 0-.024.024.024.024.024.048-.024.216-.072.528a6 6 0 0 0-.024.48q0 .168.048.408a8 8 0 0 0 .168-.528q.12-.696.384-.84l-.192.864.024.024q-.24 1.248-.336 2.232a.4.4 0 0 1 .024.168q0 .12-.024.24t-.024.24q-.024.216-.096.528a3 3 0 0 0-.048.456q0 .12.048.264a.4.4 0 0 1 .144-.048l.216.024-.168.216q.024.072.096.072.048 0 .144-.024t.096.072l.792-.144v.024l1.344-.264q.096-.048.384-.096.288-.072.408-.144a.32.32 0 0 0 .144-.288h-.024l.216-1.176a.3.3 0 0 0-.144-.024.8.8 0 0 0-.288.072q-.168.048-.264.072a11 11 0 0 1-.552.072H10.8l-.024-.024q-.024.024-.096.024a.5.5 0 0 1-.168-.024l-.096-.048a.64.64 0 0 1-.288-.264 1 1 0 0 0-.192-.312.57.57 0 0 1-.048-.456q-.048-.024 0-.048a1 1 0 0 0 .096-.072.8.8 0 0 1 .192-.216q.12-.12.168-.192h.048q.12 0 .12.096 0 .048-.024.144a.3.3 0 0 0 0 .168q.672-.144 1.632-.576l.456-.192v-.672q0-.504-.048-.936a7 7 0 0 1-.6.144q0-.024-.048-.024a.23.23 0 0 0-.12.048.5.5 0 0 1-.144.024q-.984.096-1.368-.6a1 1 0 0 0-.12-.168.4.4 0 0 1-.048-.264q.024-.048.072-.264a.8.8 0 0 1 .24-.36l.24-.024q.096 0 .12.072.024.048 0 .216.048.024.144.024.168 0 .36-.048.216-.072.312-.096.288-.072.864-.264.168-.168.096-.312V8.16q0-.528-.072-.768a1.5 1.5 0 0 1-.288.024.5.5 0 0 0-.24.048l-.36.024a.8.8 0 0 1-.264-.048l-.096.024a.5.5 0 0 1-.144-.024 1 1 0 0 1-.12-.048 1 1 0 0 1-.24-.216 1.4 1.4 0 0 0-.144-.192 3 3 0 0 1-.168-.432 8 8 0 0 0-.072-.336L10.368 6v-.072a.6.6 0 0 1 .048-.216q.12.072.216.216t-.072.12v.024q.384 0 .768-.096.384-.12.744-.24.36-.144.552-.216.72-1.416.96-1.944.144-.36.288-1.128v-.24a.9.9 0 0 0 0-.288q-.096-.144-.432-.24l-.264-.024a.8.8 0 0 0-.192.048.6.6 0 0 0 .072-.144q.072-.144 0-.264v-.072q0-.288.312-.456.192-.024.432-.072t.408-.048q.096.048.216.144.12.072.192.12.096.024.192-.072.048 0 .144.024.12.024.192.072a.7.7 0 0 1 .216-.024q.504 0 1.008.336.24.168.672.552.12.144.216.48-.024.12-.096.408-.048.264-.144.456-.24.192-.336.336-.024.072-.12.216t-.096.216q0 .168.264.168.312-.312.336-.048.144.168.48.408.12.024.408.096.312.048.552 0 .36.144.576.6a1.6 1.6 0 0 0-.048.264.45.45 0 0 1-.12.264q.312.096.312.24 0 .072-.216.336a1 1 0 0 1-.144.096q-.096.048-.168-.024a.3.3 0 0 1-.24 0q-.096-.072-.024.048.072 0 .072.048t-.12.168a1 1 0 0 0-.12.168l-.384-.048a4 4 0 0 1-.24-.096q-.144-.096-.24-.024l-.816-.024q-.264 0-.408.024-.024-.048-.072 0-.024.024-.048.024l-.024-.024q-.144.024-.432.048t-.36.144q.24.096.624.432a2.3 2.3 0 0 1-.072.6q.024.048.024.144l-.024.312v.024h.024q.024 0 .048-.096t.072-.12q.072-.048.24-.168.192-.144.384-.192.072 0 .096.024h.072q.048 0 .096-.048a1 1 0 0 1 .096-.12q.024.096.072.096.048-.024.12 0 0-.096.12-.144a.6.6 0 0 1 .216-.048q.12 0 .192-.024v.024l.024-.024q.192.024.408.12.24.096.336.144.072.072.24.168a.8.8 0 0 1 .264.144q.072.072.024.216.024.072.072.144l.12.12q.144.096.336.336.144.216.216.456-.024.024-.144.192a.55.55 0 0 1-.264.24h-.264q-.264 0-.408-.12-.12.024-.288.096a.5.5 0 0 1-.264.024v.024l-.696-.024q-.384.024-.672.072a12 12 0 0 1-.48.072q-.12.024-.288.12-.144.096-.048.096a2.5 2.5 0 0 0-.072.6l.024.696q.168-.048.504-.168.36-.12.648-.096a1.05 1.05 0 0 1 .432-.48q.192 0 .408-.072.072.072.216.072l.36-.024.384.096q.072.024.264.12.216.096.408.144h.144q.408 0 .576.216.072.24.072.504.192.12.24.432.048.288.072.384a.3.3 0 0 1-.192.12.7.7 0 0 1-.168.024.5.5 0 0 0-.144-.024 7 7 0 0 0-.456.264q-.312.192-.576.192a.5.5 0 0 1-.312-.096l-.024.024a.3.3 0 0 0-.144-.024 1 1 0 0 0-.216.024 1 1 0 0 1-.216.024.26.26 0 0 1-.192-.072q-.048.024-.168-.024-.12-.072-.096.024a1.4 1.4 0 0 0-.432-.072q-.192 0-.48.048a14 14 0 0 0-.624.072.37.37 0 0 0-.192.096q-.072.672-.168 1.056-.072.36-.288.696l.024.024q.72-.048 1.128-.096.168-.024.6-.072a4 4 0 0 0 .768-.192q.216.048.456.048h.336q.12-.024.312-.024t.528.048l.12-.048q.096 0 .168.048.096.024.168.024.408.096.768.528.168.12.456.288t.432.336M9.168 6.264q.048-.072.096-.192a.8.8 0 0 1 .12-.192q.072-.048.144.024l-.552.672V6.48zm-6.36 1.392q.24-.72.288-1.08a3 3 0 0 0-.12.144.3.3 0 0 0-.024.264l-.096.168a5 5 0 0 0-.048.216 1.5 1.5 0 0 0-.024.288zM8.64 6.96l.336-.384V6.6q0 .048-.072.12a.3.3 0 0 0-.096.096l-.048.072q-.048.096-.12.096zM3.312 9.672q-.024-.048.024-.048.072-.024.024.024zm5.928 1.272q-.024-.072.024-.096.072-.024.024.072zm-.528 1.104q0-.072.024-.072t.024.072zm-4.464.528a1 1 0 0 0 .024-.216q0-.144.024-.216t.12-.048l-.12.48zm-.072.072q.024-.072.048.024.048.096-.024.048zm-.408 1.2a.3.3 0 0 0-.096.096q-.024.048.048.024zm.288 1.008q-.024-.048.048-.048t.048.048zm0 .24q0 .048-.024 0zM8.928 17.4q-.048-.048-.096-.024-.024.024-.024.072.024.072.096.072zm35.232-6.912q.144.096.192.432-.144.216-.336.408-.048.144-.24.288t-.24.264q-.144.072-.312.216t-.264.216a1 1 0 0 0-.096.144.3.3 0 0 1-.144.168q-.024.12-.168.192-.144.048-.192.072-.072 0-.192.024a2 2 0 0 0-.192.048q-.072.144-.336.192a3 3 0 0 0-.36.048q-.312.048-.456.144l-.24.24a.9.9 0 0 0-.192.36q-.096.072-.12.24a2 2 0 0 1-.048.216q-.144.24-.264.576a7 7 0 0 1-.144.432q-.024.072-.168.336a.87.87 0 0 0-.096.48q-.096.12-.144.432-.12.288-.264.864-.24.72-.408 1.056v.024q0 .12-.12.216-.096.12-.144.192a10 10 0 0 1-.312.192 1.6 1.6 0 0 1-.456.192.32.32 0 0 1-.216.12 1.2 1.2 0 0 1-.336 0 .7.7 0 0 0-.264 0l-.12.024q-.072 0-.144-.192-.192.144-.216.144t.144-.24a.7.7 0 0 0-.288-.048h-.288a2.5 2.5 0 0 0-.36-.192 2 2 0 0 1-.336-.144 4 4 0 0 0-.432-.336.5.5 0 0 0-.24-.048q-.144.024-.192.024a3.3 3.3 0 0 0-.672-.096q-.432.048-.96.144t-.72.12a.7.7 0 0 1-.024.168.8.8 0 0 1-.048.264.7.7 0 0 0-.168.192q-.048.144-.072.192l-.192.048a.5.5 0 0 1-.144-.024.5.5 0 0 0-.144-.024q-.096 0-.216.12 0 .12.096.36v.024q0 .072-.024.072-.096 0-.336-.408-.072-.096-.216-.096-.12.024-.168.024a8 8 0 0 1-.264-.288.84.84 0 0 1-.24-.408.6.6 0 0 1-.144-.264 3 3 0 0 0-.048-.24 1.2 1.2 0 0 0-.216-.264q-.168-.144-.192-.288a.5.5 0 0 1-.168-.24 2 2 0 0 1-.024-.312q.024-.144.024-.216a1 1 0 0 1-.12-.216.8.8 0 0 0-.048-.192 3 3 0 0 1-.216-.528 10 10 0 0 1-.12-.408 3 3 0 0 0-.168-.336 1.5 1.5 0 0 1-.12-.384.3.3 0 0 0 .024-.144q0-.144-.096-.384l-.192-.696a.5.5 0 0 0-.144-.024q-.072-.024-.096-.12a11 11 0 0 1-.792.264l-.48.144q-.072-.168-.216-.168-.168 0-.504.192a5 5 0 0 1-.456.24 2 2 0 0 0-.36-.048q0 .048-.024.048a.52.52 0 0 0-.312-.144 1 1 0 0 0-.288-.048 1 1 0 0 0-.168-.024l-.024-.024q.024-.024.024-.072 0-.12-.192-.12a3 3 0 0 0-.24-.024l-.024-.024q.072-.12.264-.096h.312q.408-.096 1.176-.384 1.2-.528 1.872-1.008 1.008-.576 1.488-.936A59 59 0 0 0 30.6 9.912q.6-.576 1.152-1.248.072-.072.144-.168.096-.12.144-.192l.288-.288q-.24-.36-.84-.96l-.432-.408a4.3 4.3 0 0 0-.696.576.9.9 0 0 0-.336.288 3 3 0 0 1-.24.288l-.24.12q-.048-.048-.072-.048-.072 0-.192.12a.6.6 0 0 1-.192.144.36.36 0 0 1-.192.216q-.12.072-.312.144a2 2 0 0 0-.312.12l-.408.312q-.408.36-.6.432l-.096.096a.23.23 0 0 1-.12.096q.024-.12.024-.312 0-.216.024-.36.024-.072.288-.384.288-.288.336-.48.24-.216.72-.888l.36-.504q.096-.12.24-.312A1 1 0 0 1 29.352 6q.048-.096.168-.264.144-.168.192-.264 1.08-1.344 2.328-3.576l.024-.096q0-.144-.168-.144l-.096-.024q-.144 0-.144-.072t.168-.24q.168-.192.24-.264.216-.144.408-.336a1.6 1.6 0 0 0 .192-.264q.12-.216.216-.312A.38.38 0 0 1 33.12 0q.12.048.36.096t.36.192q.12.048.288.072h.288q.144.024.36.192t.36.216q.192.144.24.24 0 .144.144.36.168.192.192.312 0 .168.048.384t.072.312a.5.5 0 0 1-.192.312q-.144.12-.192.168-.144.12-.36.336-.216.192-.408.264l-.024.048q0 .024.048.024l.192-.024q.144-.048.456-.12.312-.096.48-.264.384-.12.456-.648.048-.096.12-.312.096-.216.192-.36a.8.8 0 0 1 .264-.216q.072-.096.12-.048.048.024.024.072 0 .048-.072-.024v.024q0 .096.072.168.096.048.12-.072h.024q.096.096.336.192.264.096.36.216h.12q.096 0 .096.048.48.312.792.408.12.072.36.192.264.096.384.192.024.024.144.096.144.048.192.168v.048q0 .144.144.312.168.144.192.24 0 .24-.096.72-.048.024-.144.096a.36.36 0 0 0-.144.12q-.24.168-.336.192-.24.12-.48.36-.216.24-.288.312l-.024.048h-.024V5.64l-.12.12q-.096.096-.024.144h-.024q-.048 0-.12.072a.3.3 0 0 1-.096.096q-.024.096-.24.36v.072q.024.024 0 .024v-.024q0-.024-.024-.024a.4.4 0 0 0-.12.12q-.072.072-.096.024l-.288.336a.75.75 0 0 0-.264.216 5 5 0 0 1-.216.24q-.216.216-.288.36.432.312.984.528t.648.24q.528.168.672.24.264.072.6.192t.504.168q.912.168 2.304.648l1.224.384q.072.048.216.12t.192.192m-12.288-4.56q.192.144.456.24l.432.144q.12.024.336.12.216.072.36.072a.8.8 0 0 0 .192-.048q.36-.408.648-.864.144-.216.336-.408.192-.216.384-.456t.264-.504h-.024q-.336.024-.96.216a9 9 0 0 0-1.008.264q-.072.024-.144.144a1.4 1.4 0 0 1-.12.144q-.024.024-.048-.048a1 1 0 0 0-.072.096q-.048.048-.096 0a7 7 0 0 0-.6.552q-.144.192-.336.336m6.864-.216.024-.048zm-6.624 5.952a.6.6 0 0 0 .192.024q.384 0 1.176-.264.6-.168.744-.192a17 17 0 0 1 1.344-.168.6.6 0 0 0 .264-.144 3 3 0 0 1 .24-.192 8.5 8.5 0 0 1-.912-.696l-.168-.12-.264-.168a.4.4 0 0 1-.168.168q-.12.072-.192.12-.288.288-.408.336-.336.264-.408.432-.216.024-.456.192t-.36.24a8 8 0 0 1-.312.216q-.216.12-.312.216m4.032 1.608q.048-.192.072-.432t.024-.336a1.5 1.5 0 0 1-.384 0 3 3 0 0 0-.36-.024q-.336 0-.552.12-.384.096-.552.192-.216.072-.216.144 0 .048.096.096t.24.024a.17.17 0 0 1 .144.144q.048.12.048.288.024.168.048.288.096.12.408.288 0 .096.048.096.024 0 .096-.168.072-.192.144-.24.288.168.36.264.168 0 .216-.12a.64.64 0 0 0 .072-.288q.024-.168.048-.264zM30.72 15.24q.312-.096.768-.168.24-.024.6-.12.168-.024.192-.144a.5.5 0 0 0 .024-.264v-.24a1.7 1.7 0 0 0-.168-.432q-.192-.168-.552-.24a3 3 0 0 1-.48-.168l-.072-.024a3 3 0 0 1-.384-.216q-.24-.192-.408-.216l-.288.192q-.072-.072-.144-.072-.096 0-.24.12a1 1 0 0 1-.264.168q-.12 0-.096-.072.024-.096-.096-.12l-.144.144a.5.5 0 0 0-.144.264q0 .144.072.24.096.072.288.192.216.096.288.192.12 0 .216.12l.168.168q.096-.024.096-.168a.7.7 0 0 0-.024-.168q-.024-.12 0-.168.144.528.312.696zm-1.68-1.56q-.048 0-.048-.024t.024-.048q.048-.024.048.024l-.024.024zm-4.584.192a.4.4 0 0 0-.12.024q-.048.024.024.024l.072-.024zm7.464.168q-.096 0-.072-.024.048-.048.096-.048.072 0 .048.072zm-7.488.144.024.024a.2.2 0 0 1-.096.024q-.048-.024.024-.048zm11.256 1.512a.6.6 0 0 0-.192-.024q-.168 0-.456.048-.144.048-.192.264-.024.216-.048.288-.192.24-.216.384.072.144.264.144a.8.8 0 0 0 .264-.048q.168-.048.264-.024.096-.072.096-.288a2 2 0 0 1 .048-.312l.024-.072zM31.944 17.4q.24 0 .48-.168 0-.288-.096-.864v-.072q-.048-.048-.144-.048l-.264.024-.408.12q.36.696.432 1.008m4.488 2.328q.024-.024-.024 0z" fill="currentColor"/></svg>