<svg width="44" height="21" viewBox="0 0 44 21" fill="none" xmlns="http://www.w3.org/2000/svg"><path d="M11.28 3.192q-.072-.024-.072-.096.024-.072 0-.12.624-.84 1.392-1.32.528-.408.672-.48.672-.264.888-.384A3 3 0 0 0 14.4.6q.168-.168.36-.144.432.288.792.648.216.264.384.384.096.144.384.336.024.048.096.168.096.096.096.192.024.072-.048.12.048.096.168.264t.144.24-.12.024q-.096.072-.24.216a.55.55 0 0 1-.288.168q0-.048-.048-.024l-.048.048q-.024.024.024.024-.024.072-.12.12a.16.16 0 0 1-.144-.024 6 6 0 0 1-.552.12q-.264.048-.504.024a.7.7 0 0 0-.168.024.5.5 0 0 1-.144.024q-.048 0-.048-.096a1.5 1.5 0 0 0-.408-.24 5.5 5.5 0 0 1-.84.048.4.4 0 0 1-.144-.096q-.072-.096-.12 0-.24-.12-.576-.12-.264 0-.6.072zm9.888 15.312a.5.5 0 0 0-.264.168q-.072.12-.168.36a1.4 1.4 0 0 1-.192.384q.048.048.024.096a.4.4 0 0 1-.024.12q.048.072.12.168.096.096.12.168.048.072-.048.12a3 3 0 0 1-.264-.12.64.64 0 0 0-.312-.096q-.12 0-.24.12-.48-.072-1.392-.408a8 8 0 0 0-.648-.24l-1.008-.024q-.24 0-.768.048v-.024h-.264q-1.392.168-4.248.744v-.024q-.168.024-.816.192-.768.24-1.2.24-.408 0-.72-.192a7 7 0 0 1-.816-.6 1.5 1.5 0 0 1-.264-.384q-.12-.216-.192-.336a.3.3 0 0 0-.096.096q-.024.096-.072.12a.3.3 0 0 1 .024.12q0 .048-.024.048a1 1 0 0 1-.12-.024q-.096-.024-.168.096a1.5 1.5 0 0 0-.288.192q-.12.12-.192.12-.12 0-.216-.168-.168-.024-.36-.312l-.144-.216q-.072-.12-.192-.096-1.128-.672-1.584-1.608-.096-.12-.144-.12t-.144.12a10 10 0 0 1-.672.744q-.096.072-.432.312a2.3 2.3 0 0 1-.696.384l-.12.024q-.096 0-.528-.12a9 9 0 0 1-.264-.096.9.9 0 0 1-.288-.192.53.53 0 0 1-.168-.216 8 8 0 0 0-.48-.36 1 1 0 0 0-.12-.168.8.8 0 0 1-.096-.24q.072-.192.096-.384a.7.7 0 0 0 0-.36q.072-.096.312-.264.264-.192.336-.36.6-3.624.96-8.496a2 2 0 0 1-.024-.336l.024-.72q0-.432-.048-1.248a2 2 0 0 0-.12-.456.55.55 0 0 0-.24-.264q-.192-.096-.624-.144a1.4 1.4 0 0 0-.144-.12Q.432 4.2.456 4.128q.096.096.168.096.048 0 .12-.072.096-.096.192-.168a1.1 1.1 0 0 1 .576-.144q.36 0 .768.144.432.144.552.192.096.096.36.192t.36.192v.048q0 .072-.024.192a.4.4 0 0 0 0 .192 1 1 0 0 0 .216.192q.192.12.264.24.096.096.048.24a.7.7 0 0 0-.072.312q0 .216.216.216.024-.024.024 0 .024.024.024.048.12.072.456.12v.024q.12-.024.264-.024h.24a.5.5 0 0 1 .168-.024q.096 0 .168-.024.072-.048.024-.12L5.64 4.56l-.024-.024a1.3 1.3 0 0 0 0-.36v-.288q0-.336.072-.648-.096-.216-.168-.264-.048-.072-.264 0a.8.8 0 0 1-.24.048q-.168 0-.432-.072a2.3 2.3 0 0 0-.432-.12q-.192-.024-.408.12a4 4 0 0 1-.312.216l-.12-.216a2 2 0 0 1 .096-.216q.072-.168.096-.288l.648-.384q.72-.48 1.128-.648.144-.048.312-.12a.8.8 0 0 1 .336-.096q.12 0 .24.096a.6.6 0 0 1 .192-.024q.168 0 .504.144.264.072.576.288.336.192.552.312a.3.3 0 0 0-.024.12q0 .096.024.24a.35.35 0 0 1 .024.216q.024.192.216.36.216.144.312.264a7 7 0 0 0-.264.432h-.048a.43.43 0 0 0-.12.24 2 2 0 0 1-.048.216 4 4 0 0 0-.024.528v.384q0 .312-.096.48 0 .024.048.024l-.096 1.488q.072 0 .216-.048.168-.048.264-.048.144 0 .12.168h.024a12 12 0 0 0 1.776-.6l1.128-.504q.96-.432 1.464-.624l-.024-.264a.38.38 0 0 0-.144-.24 3 3 0 0 0-.12-.144q-.12-.072-.36-.144a1.4 1.4 0 0 1-.384-.216q-.024-.072-.192-.216a1 1 0 0 1-.192-.24q-.048-.096.072-.168l-.096-.24q.288.096.72.048a.8.8 0 0 0 .24.048q.12 0 .36-.048t.36-.048q.384 0 .768.168.408.168.48.192.288.192.456.24l.24.456q.264-.048.6-.288.264-.168.528-.264l.144.072a.6.6 0 0 0 .216.048q.48-.312.72-.384.408.024.792.264l.288.072a.85.85 0 0 0 .36-.024q.096 0 .312.024.24 0 .384.12.072.12.096.264.024.12-.096.12.024.096.096.24a.6.6 0 0 1 .072.216q0 .072-.12.096a.3.3 0 0 0-.096.216l.048.192a1.5 1.5 0 0 0-.312.48q-.072 0-.192.024-.096 0-.24-.024a.54.54 0 0 1-.336.144h-.288q-.72-.288-1.104-.36a1 1 0 0 0-.264-.024q-.168 0-.264.024 0-.048-.096-.024a.4.4 0 0 1-.12.024q0-.024-.024 0h-.048V5.76l-.36.048q-.072.024-.264.072t-.216.216a.6.6 0 0 1-.072.192q-.048.144 0 .216.024.12-.024.384-.048.24-.048.408 0 .24.144.264a.6.6 0 0 1-.072.144 1 1 0 0 0-.048.12l.024.024q-.024.24-.024.552t-.048.504q.24-.024.552-.12l.504-.144a.3.3 0 0 0 .024-.144v-.192q0-.144.072-.216-.024-.024-.024-.096 0-.12.048-.24a.8.8 0 0 0 .048-.24.23.23 0 0 0-.072-.168q-.144.024-.432.12a1.1 1.1 0 0 1-.48.072v-.024l.288-.072a1 1 0 0 0 .096-.144.46.46 0 0 1 .24-.192q.048-.144.168-.168a2 2 0 0 0 .216-.048q.096-.048.12-.192.072-.048.264-.048.168 0 .456.048l.288.096a.6.6 0 0 1 .336.192q.048.072.144.24.096.144.144.288a.37.37 0 0 1 0 .264l.024.024q-.048.24-.048.336 0 .144.072.216a.42.42 0 0 0 .36.12q.216-.048.312-.048.072 0 .216.048.36.168.36.36 0 .096-.12.264.048.216-.096.528-.12.288-.12.432-.192.192-.192.384a.8.8 0 0 0 .048.24l-.264.048q-.048 0-.168-.024a.2.2 0 0 0-.192 0 4 4 0 0 1-.288-.072 1 1 0 0 0-.288-.048.6.6 0 0 0-.264.072q-.384.456-.48.624-.168.096-.552.48-.096.024-.168.144-.072.096-.096.12a.6.6 0 0 0-.072.144q-.048.096 0 .168a.9.9 0 0 0 .408.096h.288q.048 0 .264.072a.67.67 0 0 1 .336.168.24.24 0 0 1 .096.24 3 3 0 0 1-.192.24q-.144.144-.12.312a2 2 0 0 1-.12.192.6.6 0 0 0-.12.24q.072.36.072.384 0 .24-.216.168-.336.216-.816.168-.36.024-1.032.168l.024.72q0 .168-.048.552l.024.024q-.024.168-.096.384a1.4 1.4 0 0 0-.048.336q0 .12.072.264a34 34 0 0 0 1.992-.192q.168-.144.408-.216.36-.072.984-.12.096.024.264.096.168.048.264.048.12 0 .144-.12.312.168 1.152.744.144.12.48.432.36.312.552.624zM3.12 3.192q0-.12.048-.12.072 0 .024.12zm10.92.168.048.048q0 .024-.072 0a.3.3 0 0 1-.12-.072q-.024-.048.072-.072zm-.288 0q.072 0 0 .048t-.048-.024zm-.192.024q.024 0 .024.024t-.024.024zm-.768 6.072.096-2.232q0-.072-.024-.192a2 2 0 0 0-.048-.192l-1.392.768q-.576.48-.744.696-.36.096-.768.36l-.576.36a6 6 0 0 1-.576.192.5.5 0 0 0-.216-.048q-.12 0-.24-.024a1.1 1.1 0 0 1-.336-.336l-.072-.144a.6.6 0 0 1-.048-.216V8.4q.024-.024.024-.096 0-.096-.096-.192a.8.8 0 0 1-.096-.216q.048.024.024-.024a.16.16 0 0 0-.072-.072 4 4 0 0 0-.048.48q-.144 1.056-.12 1.56H7.44q.048.072.024.168v.12l-.024.024q.048.384.048.576l-.024.744q.144 1.824.168 2.76-.024.024-.024.072a.2.2 0 0 1 .024.072 20 20 0 0 0-.048 1.152q0 .456.048 1.32l.024.648q0 .192-.024.36a3 3 0 0 0-.024.384q0 .192.024.288.024 0 .048-.048a.2.2 0 0 0 .024-.072q.072-.048.168-.144.096-.072.144-.072.072 0 .096.168.072.096.216.12t.216.048q.744-.072 2.232-.504l1.176-.312a.32.32 0 0 1-.12-.264q0-.168-.024-.264l-.36-.144a1 1 0 0 1 .288.072q.216.048.336 0v.024q.312-.096.552-.648a.4.4 0 0 1-.072-.24q0-.168.096-.168v-.384q0-.24.024-.36-.216.096-.552.264a4 4 0 0 1-.624.216q-.264.072-.552.072a1.6 1.6 0 0 1-.528-.24 7 7 0 0 1-.552-.504 1.1 1.1 0 0 1-.216-.408l-.024-.288q0-.216.144-.24.048.12.216.168t.24.072l1.392-.624q.768-.384 1.176-.48l.024-.384a.6.6 0 0 0-.024-.192v-.096l-.024-.264q0-.048.048-.192 0-.072-.024-.192 0-.12.024-.192l-.792.312q-.072.12-.168.408l.024.096a.66.66 0 0 1-.12.336q-.12.168-.192.312a3 3 0 0 0-.168.096.6.6 0 0 0-.192.12.3.3 0 0 0-.048.168l-.288-.12q-.216-.144-.552-.528-.312-.504-.6-.48a3 3 0 0 0-.36-.048 2.7 2.7 0 0 1-.456-.12 1 1 0 0 1-.288-.24 3 3 0 0 0-.168-.216 1 1 0 0 1-.168-.264.3.3 0 0 1 0-.24l.072-.144q.072-.12.12-.144.072-.024.168.024t.288.048q.24 0 .48-.096.264-.096.36-.12l-.12-.408a1.5 1.5 0 0 1-.12-.264q-.048-.216-.216-.24-.048-.12-.12-.312a1.2 1.2 0 0 0-.144-.312l.432-.072.096.024a.7.7 0 0 0 .168-.024q.12-.024.168 0 .072 0 .072.096.36-.048.768.576.096.288.192.456l.456-.12q.216-.096.624-.288.432-.216.768-.288V9.48l.024-.024zm-8.928-.24q.024.264-.048.624-.072.336-.096.528a.6.6 0 0 0 .24-.12 1.4 1.4 0 0 0 .192-.144q.336.168.576.168.048-.048.072 0 .144-.096.36 0 .24.096.336.12.12.024.048-.168-.024-.216.072-.888.024-.168.048-.36.024-.216.024-.432 0-.504-.264-.504-.144 0-.312.096l-.432.336q-.384.24-.552.408a1.1 1.1 0 0 0-.36.192q-.168.144.048.12zm-.144-.408q.216-.24.312-.384a.6.6 0 0 0 .096-.336l-.24-.024a.7.7 0 0 0-.144.384v.288zm11.208 3.288q.024.12.048.216.048.096.144.072l.168-.528q.024-.144.072-.312.048-.192.048-.312a.8.8 0 0 0-.048-.24l-.312.072a.6.6 0 0 0-.12.264 1.5 1.5 0 0 0 0 .384q.024.216 0 .336zm-9.336-.384.024-.024q0-.168-.072-.36t-.12 0q-.264.24-1.272 1.032-.264.12-.48.192l-.024-.024a.5.5 0 0 0-.336.288h.048l.024.024a.8.8 0 0 1-.048.264q-.024.12-.024.24h.024q0 .264-.072.552a4 4 0 0 0-.048.504q0 .288.12.504.144-.048.312-.168t.264-.192l.432-.36q.672-.576 1.104-.84a2 2 0 0 1-.12.192.43.43 0 0 0-.072.312v.048q-.096.12-.288.336a.7.7 0 0 0-.216.408l-.216.288q-.144.192-.216.336-.048.12.048.216a.34.34 0 0 0-.048.192q0 .12.024.216t.048.168q.192.24.336.288.072.048.288.24.24.192.36.192t.144-.12l.072-1.92a.4.4 0 0 0-.024-.12q0-.096.024-.168v-1.296l.024-.024a1.4 1.4 0 0 1-.048-.336l.024-.456q.048-.048 0-.072zM7.56 18.72a.26.26 0 0 1-.048.144q-.048.072.048.096l.024-.24zM32.328.072q-.024-.072.048-.024.072.024.048.072a.4.4 0 0 1 .168-.024.8.8 0 0 1 .24.048q.144.024.24.048.192.12.744.336.312.264.6.696.192.288.312.408.096.144.168.336t.12.288q.144-.048.168 0 .024.024-.048.144.048.576.048.84t-.024.384q.024.072.024.216a2.3 2.3 0 0 1-.072.6l.312-.36q.816-.96 1.176-1.464.024-.048.12-.192a1 1 0 0 0 .12-.312l-.504-.144q-.024.024-.096.024l-.192-.024q-.072.024-.312.072-.216.048 0-.072.264-.12.6-.216.336-.12.456-.168.288-.288.384-.48a.8.8 0 0 1 .24-.048l.336.024.552.216q.768.264 1.152.504.12.12.192.36.096.24.168.336l.096.096a.4.4 0 0 1 .12.12q.024.048-.048.096a11 11 0 0 0-.192.432 2 2 0 0 1-.312.552q-.192.24-.48.432-.456.36-.624.6.24.024.408.024.192-.024.336-.024.264 0 .504.072.072.072.216.12.168.048.264.096l.24.024.24-.024q.144.048.48.288a1 1 0 0 1 .12.168.7.7 0 0 0 .144.12q.072.024.12-.072.096.144.144.36.072.192.096.264.096.384.192.576.048.24.048.288-.048.336-.456.696a2 2 0 0 0-.096.12.22.22 0 0 1-.144.12q-.144.12-.48.264-.432.192-.6.384-.144.048-.312.144T39.528 9v-.048q0-.096-.12-.096a.44.44 0 0 0-.312.144.73.73 0 0 0 .168-.456q0-.24-.288-.312-.048.024-.12.072a.26.26 0 0 1-.144.048q-.072-.12-.192-.12-.072 0-.168.096l-.072-.024q-.048 0-.144.072a1 1 0 0 0-.096.072q.048.048 0 .096-.024.048-.048-.048-.12.048-.48.096-.336.024-.432.168.072.048.312.216.264.144.408.36.12.216.072.576.024.048.12.216.12.168.096.312-.024 0-.048.144 0 .12-.048.168-.096.12-.336.312 0 .12-.096.312-.096.144-.168.336L37.32 12a.3.3 0 0 1 .024.12.8.8 0 0 1-.024.192.5.5 0 0 0-.024.168l-.024.024a.6.6 0 0 1 .024.192q0 .216-.072.504t-.096.456q0 .024.048.024l-.12 1.056.024.024q0 .048-.024.168 0 .12-.048.192.024.024.024.096a.5.5 0 0 1-.024.144.5.5 0 0 0-.024.144h.024a9 9 0 0 1-.144.912 1.8 1.8 0 0 1-.264.6l-.312-.096q-.384.576-.432.672l-.024.36q0 .288.192.384.192.072.432.072.264.024.384.024.96-.12 2.256-.456.624-.144.912-.696.432-1.056.72-2.52.144-1.008.336-2.856v-.048a.7.7 0 0 0-.024-.168v-.144q.024-.048.096-.024l.048.36h.024v-.048q0-.072-.024-.24t.072-.168q0 .096.024.264a.6.6 0 0 1 .024.288q.024.096.096.288t.048.288q.12.624.216.624.048 0 .072-.168a4 4 0 0 0-.072-.192 1 1 0 0 1-.024-.168q0-.072.096-.048.048.264.144.504.096.36.12.504h-.024q.024.072.048.192t.12.192q.048.24.096.36h.024l-.096-.744v-.048a.6.6 0 0 0-.048-.192.25.25 0 0 1 0-.216q-.096-.336-.072-.504Q42 12.6 42 12.552l.12.168q0 .168.12.264.096.192.144.432.072.24.096.336-.024.024 0 .072.048.024.048.048l-.024.024q.024.048.12.192.12.144.072.288.024.048.072.168.048.096-.024.168.096.048.096.168a.7.7 0 0 1 .024.144q.072.072.096.192.048.12.12.192-.048.24.072.624.12.36.168.552v.024q0 .048.072.168.072.096-.024.072l.192.552a.33.33 0 0 1 .072.168q.048.12.144.144l-.12.84q0 .024.048.024l-.072.264h.024q-.048.264-.144.336a.35.35 0 0 1-.024.288 1.5 1.5 0 0 1-.168.264l-.144.216q-.24.216-.624.36-.36.168-.72.288 0-.024-.048-.024a.6.6 0 0 1-.312.12q-.168.024-.264.048l-.024-.024q-.288.144-.648.192-.336.048-.408.048-1.32 0-1.992-.024v-.024q-1.968 0-3.504-.936-.672-.576-1.008-1.656 0-.24.048-.768.072-.456.048-.84l-1.32 2.088-.192.192q-.096.12-.168.144-.072.048-.096-.072-.264.096-.504.384t-.384.432a.9.9 0 0 0-.36.024q-.168.072-.432.216-.24.144-.36.192a4 4 0 0 0-.552.168q-.672.192-1.008.264a.3.3 0 0 0-.192-.12 1 1 0 0 0-.12-.024l-.12-.36q0-.024.048-.096t.168-.024q.456-.192.816-.528a9 9 0 0 0 .792-.864q.312-.384.672-.744.432-.528.6-.84a4.5 4.5 0 0 0-.672-.912 6 6 0 0 0-.12-.216q-.072-.192-.048-.336a.6.6 0 0 1 0-.336l.048-.144-.024-.096a.6.6 0 0 1 .048-.216q.072-.12.096-.192.024-.12.072-.288a.6.6 0 0 0 .024-.288h.024l-.024-.024a10.9 10.9 0 0 1 .96-4.8.7.7 0 0 0-.024-.144.26.26 0 0 1 .072-.192q.24.072.528.264a.55.55 0 0 0 .168.312q.144.144.216.24l.096.192q.096.12.216.192 1.152-.744 1.92-1.08.096-.024.264-.048t.192-.144q.288-.192.456-.24h.024q.072 0 .216-.024.168-.024.144.072.12-.024.312-.024.216 0 .336-.024a.29.29 0 0 0 .192-.192l.408-.408a48 48 0 0 0 1.224-1.248q.144-.168.288-.36l.312-.36v-.024a16 16 0 0 0-.648-.096 4.3 4.3 0 0 0-1.008-.024q-.192-.048-.504.024a2 2 0 0 1-.408.072 6 6 0 0 0-.504.12q-.36.072-.648.192-1.2.624-2.208 1.224a1.3 1.3 0 0 1-.36.216q-.24.096-.336.168-.6.264-.936.384-.312.12-.696.12l-.648-.072a9 9 0 0 1-1.128-.192.85.85 0 0 0-.36-.192q-.24-.096-.384-.072-.12.024.048.168.048.12.072.288.048.168.072.264 0 .072.072.288t-.024.264a.5.5 0 0 0-.024.288.9.9 0 0 1 0 .288q.024.024.024.12l-.024.24-.024.024q-.096 1.152-.768 2.328a4 4 0 0 0-.168.12.6.6 0 0 1-.168.096q-.072 0-.144-.096h-.024q-.072 0-.12.096l-.072.144a.9.9 0 0 1-.144.264q-.096.096-.192.096-.072 0-.144-.144.024-.024.024-.072l-.024-.192.024-.144q0-.144-.072-.192-.072-.072-.168.024a4 4 0 0 1-.528-.48 4.5 4.5 0 0 1-.192-.768 9 9 0 0 0-.12-.648q.12-.048.12-.216t.024-.24q.24-.312.432-.696l.216-.528q.336-.744.408-1.2a1 1 0 0 0-.12-.168q-.096-.144-.096-.216t.144-.048q.096-.072.336-.072.576.24.84.384a.8.8 0 0 1 .312-.144l.288-.096q.288-.192.96-.432-.024-.144-.216-.264a5 5 0 0 1-.24-.216q-.12-.024-.144-.168a.8.8 0 0 0-.048-.192 5 5 0 0 1-.12-.576q-.192-.864-.408-1.248a2 2 0 0 0-.168-.12q-.12-.12-.24-.048a1.4 1.4 0 0 0-.168-.192 1.3 1.3 0 0 1-.144-.216q-.048-.096.024-.216a.85.85 0 0 1 .456-.24q.264-.072.672-.096.096 0 .264.048.168.024.288-.048.168 0 .264.024.12.024.216.048.168-.096.312-.024t.264.192q.144.12.216.168a1.6 1.6 0 0 0 .072-.408 3 3 0 0 1 .096-.432.29.29 0 0 1 .216-.168q.048.048.024.096v.072l-.024.024h.024l-.072.864q.048.216.312.72.096.6.336 1.272l.144.48 1.728-.48q.168-.048.552-.096.384-.072.528-.216a.3.3 0 0 0-.144-.12.22.22 0 0 0-.144 0h-.12a2 2 0 0 0-.216-.072.5.5 0 0 0-.312 0 1.35 1.35 0 0 1-.648-.576 11 11 0 0 1-.432-1.128q.024-.192.048-.432.024-.264.024-.6 0-.312-.024-.456-.072-.36-.336-.864A1.2 1.2 0 0 1 31.8.792a.7.7 0 0 0-.24-.288.4.4 0 0 0-.264-.096 1.2 1.2 0 0 1 .384-.36.6.6 0 0 1 .192-.024q.12 0 .312.048zm3.168 2.064q-.072 0-.048-.024a.2.2 0 0 1 .096-.024v.024zm1.56 2.688h.048q.168 0 .24-.072.096-.072-.048-.144zm1.8 4.368v-.096q0-.072.048-.048v.024zm-5.688 2.136q-.168 0-.192.096.024.312-.072.936-.024.12-.048.384-.024.24-.024.432v.312q0 .192.024.288h.024q.024-.12.072-.336.072-.216.072-.384a.6.6 0 0 0-.024-.192q.072 0-.024-.096.288-.384.336-.624h.288a7 7 0 0 0 .384-.144.65.65 0 0 1 .456-.024q.096.072.288.12t.288.096h.048q.048 0 .12.024.096 0 .12-.024.048-.024.048-.096l.024-.024a3 3 0 0 1-.048-.432l.024-.576a5 5 0 0 1-.048-.312q-.024-.216-.096-.312-.048-.096-.192-.048a2.8 2.8 0 0 0-.648.336l-.504.36a.6.6 0 0 1-.24.072q-.144 0-.264.024a.15.15 0 0 0-.12.12zm8.04.072q0-.048.024-.048t.024.048zm.648.744q.048-.024.048.048.024.048-.024 0zm.12.264.024.048q-.024 0-.048-.072a.5.5 0 0 1-.024-.144q.024 0 .024.024t.024.048zm-7.032 1.8-.048-.024q-.024 0-.072.096a1 1 0 0 0-.072.12v.048q0 .12.168.168a1 1 0 0 1 .24.096l.12-1.056h-.024l-.216.408zm-.552 1.512q.024-.096-.048-.096-.048 0-.024.096zm9.36 1.944q0-.12.024-.12t.024.12zm-12.864 2.304.072-.072q.048-.024.024.024zm-.216.24q-.024 0-.024-.024l.144-.144z" fill="currentColor"/></svg>