<svg width="19" height="37" viewBox="0 0 19 37" fill="none" xmlns="http://www.w3.org/2000/svg"><path d="M18.38 14.22v.14a5 5 0 0 1-.1.18.8.8 0 0 1-.18.22q-.7.24-1.54.68-.1.02-.32.08a3 3 0 0 1-.4.08v-.02a.6.6 0 0 0-.12.02.17.17 0 0 1-.16 0v.02l-.34-.04q-.42-.12-.72-.32-.34-.26-1.16-1.08a7 7 0 0 1-.34-.42q-.4-.5-.76-.86a11 11 0 0 1-.36.46q-.24.3-.4.56a1 1 0 0 0-.1.14q-.06.12-.14.12v-.02a.3.3 0 0 0 .06-.14q.02-.1.04-.16.04-.06.12-.04.08-.06.08-.14v-.12l-.44.22q-.1.02-.32.14a1.1 1.1 0 0 1-.28.16q-.06.02.02-.14l-.38.22q-.06.02-.18.04t-.16.1a.7.7 0 0 1-.2.02.3.3 0 0 0-.22.08q-.02-.02-.06-.02a.5.5 0 0 0-.14.04.5.5 0 0 1-.16.04 1 1 0 0 1-.16-.08q-.08-.04-.1.06l-.24-.16q-.04.06-.1.2-.04.16-.16.22a.5.5 0 0 0-.08.22.6.6 0 0 0 0 .22q.04.06.1-.08.02 0 .02.04a3 3 0 0 0-.08.3 1 1 0 0 1-.1.3q-.04.1-.14.1a1.4 1.4 0 0 1-.06-.18v-.12a.5.5 0 0 0-.38-.26 1 1 0 0 1-.24-.06.45.45 0 0 1-.16-.16 4 4 0 0 1-.12-.28 1.2 1.2 0 0 0-.16-.34h-.02l-.2.48q-.3.6-.56.88-.04.04-.14.04-.06 0-.18-.08a.26.26 0 0 0-.24 0H5.5a.6.6 0 0 0-.14.02q-.08.04-.14 0a.7.7 0 0 0-.12-.22q-.08-.12 0-.2a2.6 2.6 0 0 1-.62-.8 3 3 0 0 0-.12-.16.44.44 0 0 0-.18-.14q-.02-.02-.02-.08l.02-.2a.6.6 0 0 1 .1-.24l.12-.18.06-.4q.02-.08.06-.32t.02-.44q.02 0 .02-.06l-.02-.18q.04-.02.02-.06a.3.3 0 0 1-.02-.1q.04.02.02-.04a.3.3 0 0 1-.02-.08h.02a.6.6 0 0 1-.04-.18l.02-.24q-.04-.56-.12-.82-.12.04-.44.08a2 2 0 0 0-.46.08q-.16.04-.18.18-.04.44-.1.7-.02.06-.04.16 0 .08-.04.12-.02.04-.1.02 0-.04.02-.06.04-.02.02-.06a1 1 0 0 1 .06-.14.5.5 0 0 0 .08-.14q.02-.06-.04-.06l.08-.56h-.02l-.14.52a5 5 0 0 1-.14.4q-.1.24-.1.42.04-.04.06-.04.04 0 .06.04.04.04.02.1-.18.18-.24.28a.3.3 0 0 0-.04.16v.12q.02.06-.02.12a.3.3 0 0 1-.08.12.5.5 0 0 0-.06.12q-.02.04.04.06-.02.04-.1.22-.06.16-.18.28.02.02-.12.16-.12.14-.24.12-.02.12-.2.4-.14.08-.22.34-.06.26-.12.36a.24.24 0 0 1-.14-.16.32.32 0 0 0-.14-.18v.04q0 .08-.08.08H.94l-.16-.26q-.06-.06-.26-.28a4 4 0 0 1-.3-.42 1.1 1.1 0 0 1-.16-.34q.1-.06.1-.12t-.08-.18-.08-.18q.04-.34.14-.62.02-.12.02-.4.02-.32.06-.48a.3.3 0 0 1 .2-.22.13.13 0 0 0 .02-.12v-.12q.06.02.12.1l.1.1.08.16q.06.12.16.1.2-.68.44-1.76l.08-.6a7 7 0 0 0 .16-1.2l-.02-.04q0-.06.02-.08a.2.2 0 0 0 .02-.08l-.02-.02.18-1.92a3 3 0 0 0 0-.48v-.36q0-.5.12-.82l.02-.72q0-.24-.02-.36a.7.7 0 0 0-.1-.22q-.06-.1-.1.02h-.02q-.08 0-.16-.08l-.12-.12a.9.9 0 0 1-.18-.52q0-.34.32-.36a.13.13 0 0 1 .1-.1.6.6 0 0 0 .14-.04q.06.08.12.08T2 1.9l.12-.06a.7.7 0 0 0 .24 0 1 1 0 0 1 .22-.04q.08 0 .2.04h.06q.08 0 .22.06.14.04.24.06.24.12.36.2.1.12.34.32.34.34.42.46.3.7.34 1.18h.02q.34-.62.56-1.78 0-.26.06-.38v-.04l.02-.28a.3.3 0 0 0-.08-.22q-.1.02-.28.04-.16.02-.24.02a.55.55 0 0 1-.26-.08 1.1 1.1 0 0 0 .18-.36.55.55 0 0 1-.04-.36q.34-.38.56-.54.1-.02.28-.02h.3q.38 0 .56-.06l.22.02a.6.6 0 0 0 .3-.08q.34.06.58.26.24.18.54.54h-.02l.12.6q-.02.1-.08.28a.5.5 0 0 0 0 .28 3 3 0 0 0-.08.3q-.04.16-.1.28a.24.24 0 0 1-.16.14q-.16.28-.3.36-.06.12-.26.3a.54.54 0 0 0-.2.34q.32.14.7.24a.7.7 0 0 1 .16-.04l.22.02q0 .02.04.02a1 1 0 0 0 .18-.08l-.14-.18.14-.34a.6.6 0 0 1 .32-.46q.28-.16.64-.16 0 .02.02.02.02-.02.04-.02 0 .02.02.02a1 1 0 0 0 .1-.04.2.2 0 0 0 .06-.04q.64-.5.78-.62a6 6 0 0 0 .5-.36l.4-.34q.14-.12.26-.24a.56.56 0 0 0 .14-.3q.24-.16.34-.26a1 1 0 0 1 .32-.04q.16.02.4.1.261.08.42.04l.02.02V.62l.28.06a.43.43 0 0 1 .32.04q.16.06.3.16l.26.16.06.42q.22.38.22.82 0 .5-.28.8a4 4 0 0 1-.7.38q-.38.14-.72.24t-.46.14q-.26 0-.36.08h-.04q-.04 0-.16.02t-.14-.06l-.44.02q-.18 0-.42-.06-.14.04-.38.08a.7.7 0 0 0-.32.12q-.1.06.06.18-.039.4.12 1.16.16.76.14 1.14.22-.14.74-.34.52-.22.82-.4.3-.2.44-.54.26-.34.48-.52a.67.67 0 0 1 .54-.16q.06.02.2.1.16.08.28.04.04 0 .16.02.14 0 .16.08a.3.3 0 0 1 .18-.06q.16 0 .34.1.18.08.24.1.36.28.54.46.18.16.3.42a.7.7 0 0 0-.04.24q.02.14.02.2-.04.26-.3.62-.2.34-.24.46a7 7 0 0 1-.26.64q0 .06-.06.16a.7.7 0 0 0-.08.18q-.02.06.04.12-.1.26-.34.78h-.02l.02.02a1 1 0 0 1-.1.3q-.08.14-.12.2a1 1 0 0 1-.12.14.27.27 0 0 0-.06.16h.02q.06 0 .08-.06a1 1 0 0 1 .08-.1 9 9 0 0 1-.26.6.8.8 0 0 0-.12.16.36.36 0 0 1-.12.16l.48.56q.42.38.92.68.52.28 1.26.64l.8.4q.14.06.42.2.3.12.52.2.08.06.08.14.02.06-.08.02-.02.02-.02.06 0 .08.08.18.1.08.14.14l-.14.16zM6.4 3.9a.7.7 0 0 1 .18-.16q.22-.08.32-.14.12-.08.02-.22H6.9q-.1 0-.2.1a.7.7 0 0 1-.14.14.6.6 0 0 1-.22.18q-.08.04-.14-.08l-.18.12-.12.12a.4.4 0 0 0-.12.14q-.2.14-.24.22v.02q.4-.14.8-.36zm2.18 2.32.02-.02-.02-.02-.02-.7-.32.08q-1.16.4-2.78 1.24-.26.16-.82.36-.1.06-.24.12a1 1 0 0 0-.24.1.36.36 0 0 0-.12.16q-.04.52-.08.78a.5.5 0 0 0-.16.3 7 7 0 0 1-.06.28l.28-.12q.24-.16.5-.38t.36-.32q.54-.5.94-.76a1 1 0 0 0 .28-.06q.18-.06.3-.04.08.06.2.06.16 0 .42-.14a4 4 0 0 1 .4-.18q.06-.1.2-.1t.22.08q.08.06.04.18.14.2.64.6l.06-1.1zm3.86 1.36q-.2.06-.6.14-.12.02-.56.14t-.8.28q.16.1.78.64l.66.54.24-.58q.02-.1.14-.46t.16-.7zm-4.02.76-.02-.1q-.16.06-.34.2l-.04-.02q-.06 0-.12.08a.4.4 0 0 1-.1.08.38.38 0 0 1-.16.22 1.5 1.5 0 0 1-.26.16q-.14.08-.26.14-.24.18-.24.3a.32.32 0 0 0 .08.2q0 .08.06.24.06.14-.04.2.04.08.04.12a.5.5 0 0 1-.04.18q-.02.08-.04.14-.08.68-.08 1.02-.02.02-.02.08v.12q0 .08-.04.12.06.1.06.34 0 .12-.02.32-.02.18 0 .3h.04q.06 0 .1-.04a.5.5 0 0 0 .1-.14q.18-.36.38-.86 0-.02.02-.04l-.1-.44q0-.04.02-.12.04-.1.02-.16a.34.34 0 0 0 .02-.14v-.16q0-.22.14-.2-.06.14-.06.32v.2H7.5a2 2 0 0 1 .04.22q.02.14.12.14l.1-.26q.16-.56.44-1.72l.12-.54zM11 11.26q-.36-.56-.72-1L10 9.88q-.12.4-.16.6-.44 1.52-.76 2.26.1.04.32.14t.4.14q.58-.74 1.12-1.58zm-8.02.9q.02 0 .04-.02t.04 0zm-.06.04q-.02-.04.02-.04.06 0 .04.04zm-.58 1.46q.06-.1.1-.2t.02-.14q-.02 0-.08.14zm8.9.56q0 .06-.04.08-.02.02-.04-.02 0-.02.04-.06zm-.12.16q.02.04-.04.04-.04.02 0-.02zm-.6 6.22.24.56q-.02.06-.06.22a2 2 0 0 0-.02.22q0 .08.02.12.04.02.12 0 .34-.08.36-.28.1-.1.28-.1.2-.02.28-.04l.04.02a.2.2 0 0 0 .08-.02.2.2 0 0 1 .1-.04 1.1 1.1 0 0 0 .36.08q.06.08.16.12t.12.04q.42.18.76.28.08.06.28.16.22.1.34.24.12.12.12.3-.1.18-.42.64a.9.9 0 0 0-.12.34q-.04.22-.1.32a2 2 0 0 0-.22.02.7.7 0 0 0-.24.04q-.02-.04-.06 0h-.04a1 1 0 0 1-.16-.02q-.1-.04-.16 0l-.02-.02-1.4.32q-.14.1-.38.16-.22.06-.32.1a.27.27 0 0 0-.1.18q-.02.1-.04.16a13 13 0 0 0-.12 1.02l.36.32q1.08 1 1.66 1.42 1.26.86 3.4 1.8.88.24 1.76.6.06.04.28.2.24.14.3.22.08.08-.12.04-.22.12-.78.3-.16.12-.42.22a3 3 0 0 0-.4.18 2 2 0 0 1-.16.14 1 1 0 0 0-.12.14q-.02.06.04.1-.06 0-.18.08a1 1 0 0 1-.16.08q-.06.02-.04-.08h-.02q-.06.08-.2.1a.7.7 0 0 0-.22.06q-.32.18-.4.24a.7.7 0 0 0-.28.14q-.1.08.04.14.06.02.16.04.1 0 .14.04.04.02.02.1l-.62-.1-.02.02q-.44 0-.92-.28-.12.02-.24-.04a2 2 0 0 1-.18-.16 2 2 0 0 0-.16-.14q-.56-.52-.76-.84h-.06q-.1 0-.34.12 0 .08.06.2.06.1.06.14t-.14 0l-.02.02a8 8 0 0 0-.74-.1l-.42-.02q-.12 0-.32.04 0 .06.02.18t-.02.18q.06.42.06.46 0 .1-.02.16l.02.38q0 .12-.02.18.02.14.1.4t.04.44q.02.06.02.18l-.02.38h-.02l.02.02q0 .04-.06.1-.04.08.04.08v.04a.25.25 0 0 1-.08.18.7.7 0 0 1-.14.14q-.04.14-.24.34-.14.36-.28.14-.24 0-.36.36a.27.27 0 0 1-.16.06q-.12 0-.16-.18a1 1 0 0 0-.12.18.43.43 0 0 1-.16.18q-.04.06-.1.18-.04.14-.14.18l.02.1q-.1-.3-.28-.28a.65.65 0 0 0-.22-.34q-.18-.14-.24-.22a.8.8 0 0 0-.14-.36 8 8 0 0 1-.14-.26q-.24-.24-.46-.6l-.26-.44q-.34-.6-.94-1.84-.32-.16-.4-.32v-.02q0-.1-.12-.2a.7.7 0 0 1-.14-.18v-.04q0-.12.18-.3a.2.2 0 0 1-.02-.1l.02-.22q-.14.04-.34.24-.06.08-.2.32t-.24.34q-.08.08-.16-.04-.06-.02-.06-.1v-.12q-.5.54-1.48 1.26-.2.1-.5.44a2.2 2.2 0 0 1-.36.36.25.25 0 0 1 .06-.1 1 1 0 0 0 .06-.1q.02-.06-.04-.08l-.14.08q.02-.04-.04-.16a1.8 1.8 0 0 1-.44.24 7 7 0 0 0 .54-.5q2.02-3.14 3.3-5.42.28-.5.34-.7v-.02l-.72.24a.5.5 0 0 1-.22.08 1 1 0 0 0-.22.02h-.12q-.14 0-.2-.04h-.02a.5.5 0 0 1-.18-.06q-.12-.06-.2-.02l-.42-.18a.7.7 0 0 1-.16-.18 2 2 0 0 1-.1-.16q-.52-.44-.68-.98a2.2 2.2 0 0 1-.08-.46q.24-.56.44-.78.22-.14.52-.22.32-.08.44-.12.1 0 .2-.02a.6.6 0 0 1 .22-.04q.14 0 .18.1.04.16.04.24 0 .14-.04.38l.02.02q.16-.02.34-.08.18-.08.28-.1a70 70 0 0 0 2.44-.98l.42-.18a.6.6 0 0 0 .04-.22q.02-.14.02-.22 0-.32.06-.68.04-.44.04-.66 0-.34-.08-.58a.5.5 0 0 0-.18-.1 1 1 0 0 1-.14-.08l-.3.36-.18.06a.6.6 0 0 1-.18.04q-.12 0-.14-.1v-.26q0-.16-.02-.24-.18-.22-.06-.4.18-.12.66-.24a4 4 0 0 0 .3-.08q.22-.06.3.02l.22-.04a2 2 0 0 1 .22-.02q.1.02.42.06.32.02.58.1.26.06.46.18.52.38.66.52zm-5.16 9.62q.02.04.06.16.06.1.18.08l.48-.12a9 9 0 0 1 1.28-.28l.06-2.42q-.04 0-.08.06a.3.3 0 0 1-.08.06 55 55 0 0 1-1.28 1.64q-.18.12-.32.34t-.2.3q-.34.28-.2.3zm4.66-1.46q-.02.04-.06.16a.5.5 0 0 0-.04.2h.02l-.02.28q.02.02.02.08l-.04.16q.54 0 .8-.04.22-.04.26-.14-.08-.1-.18-.22a3 3 0 0 0-.18-.28q-.22-.4-.38-.56t-.24.02zM4.04 31.6q0-.04.02-.04t.02.04zm3.18.08q-.12.04-.38.1a.8.8 0 0 0-.42.18l.72.52.1-.8zm-1.26.38v-.02q0-.06-.08-.08a.17.17 0 0 0-.14.02.5.5 0 0 1 .08.12q.04.08.08.1t.08-.04zm7.28 0q0 .06-.04 0-.04-.08.02-.04zm.58.36q-.04 0-.04-.02t.04 0z" fill="currentColor"/></svg>