<svg width="36" height="17" viewBox="0 0 36 17" fill="none" xmlns="http://www.w3.org/2000/svg"><path d="m10.9 2.44.08-.02.5.06v.02q.14.08.4.24.26.14.4.32.04.02.14.08.1.04.1.14v.02q.08.08.2.18t.18.2l.04.26h-.06q-.04-.02-.08.02.02.02.06.08.04.04.04.06l-.02.02q-.26.04-.76.04 0 .04.02.18.02.12.06.2.1.04.06.06-.18-.02-.42.18h-.16a.27.27 0 0 1-.2-.08.5.5 0 0 1-.2 0 1 1 0 0 0-.18-.02q-.1 0-.22.06a.13.13 0 0 0-.12.02.2.2 0 0 1-.06.02q-.02 0-.02-.04V4.7q-.18 0-.26.12a.7.7 0 0 0-.2-.04.3.3 0 0 0-.12.04q-.1-.04-.2.06a.4.4 0 0 1-.14.1q-.12.04-.22.06H9.4q-.44.24-.68.34-.18-.02-.4.14a2 2 0 0 1-.28.2.55.55 0 0 1-.22.16q-.08-.04-.18.04a.6.6 0 0 1-.16.1q-.08.1-.32.18a.53.53 0 0 1-.2.18q-.12.06-.18.12-.18.08-.4.12-.06.08.08.14l.2.06q.08.02.38.08.32.04.56.18.26.08.32.2a.95.95 0 0 1 .36.14q.22.12.32.16.04.04.16.14.12.08.24.1a.55.55 0 0 1 .14.26q.06.14.08.2v.28q0 .16.06.28 0 .3-.08.86a4 4 0 0 1-.2.6q-.14.34-.2.52-.12.24-.2.36a.8.8 0 0 1-.2.36q0 .12.18.12.08 0 .34-.06t.36-.06q.38-.02 1.16-.02h1.14q.32.04.48.04.24 0 .48-.06.32-.16.8-.16l.38.02q.06.04.2.12a.8.8 0 0 0 .28.1q.12-.02.24.04.12.04.24.16.12.1.22.16.28.08.56.34l.44.38q.12.02.2.24.1.2.14.26.02.08.04.2.02.1.02.26-.04.12-.16.32a.7.7 0 0 1-.1.28q.02.12-.1.22l-.18.18a.3.3 0 0 1-.24.02 1.3 1.3 0 0 0-.2-.02q-.3-.06-.56-.06h-.2q-.1.06-.22-.04a2 2 0 0 1-.12-.1q-.14-.02-.34-.2-.18-.2-.32-.22-.14.1-.24.1-.12 0-.36-.1t-.36-.1q-.08 0-.22-.02l-.22-.04a.5.5 0 0 0-.26-.1 1.3 1.3 0 0 1-.18-.06 16 16 0 0 1-.62-.1 3 3 0 0 0-.82-.08l-.28-.06a1 1 0 0 1 .22-.02h.2q.16.04.56.08.12.02.34.06.24.02.4.06.14 0 .4.06t.4.04q.12-.141-.04-.18a2.7 2.7 0 0 0-.56-.04q-.38 0-.5-.02a3 3 0 0 0-.2-.04.7.7 0 0 0-.2-.04h-.06a1 1 0 0 1-.12-.1q-.06-.06-.1-.06l-.04.02v.04a.2.2 0 0 0-.18-.1q-.06 0-.06.06a1.6 1.6 0 0 0-.46-.06l-.5.02q-.32.04-.48.04a1 1 0 0 0-.14.02.5.5 0 0 0-.14.06 6 6 0 0 1-.56.06q-1.84.28-2.72.54-.12.06-.4.12t-.42.16q.04.08.02.12t-.12.04a.6.6 0 0 0-.14.04q-.12.06-.34.12-.2.06-.34.12-.12.02-.3.08-.16.06-.28.06-.06 0-.18-.04-.06 0-.18.02t-.2.04a7 7 0 0 0-.6-.04q-.06.08-.14.06a.3.3 0 0 0-.1-.02q-.06 0-.08.02l-.02-.02q.02.1-.1.14a.4.4 0 0 1-.22.06.42.42 0 0 1-.3-.14 1 1 0 0 0-.18-.18q-.24-.1-.3-.16a.45.45 0 0 0-.18-.24l-.16-.16a1 1 0 0 0-.12-.1q-.08-.06-.08-.1t.02-.06q.12.06.16-.02a1 1 0 0 0 .1-.26.4.4 0 0 1 .16-.22l.18-.02q.06 0 .14.04.14.24.34.24l.18-.02q.44-.16.98-.3.82-.26 1.3-.42.48-.18.92-.48.22-.2.42-.52.22-.32.32-.46.36-.76.72-2 .04-.2.06-.48.04-.28.06-.44 0-.46-.06-.68a1.8 1.8 0 0 0-.28-.4 5 5 0 0 0-.26-.3L5.3 7q-.08.06-.26.06H4.9q-.14-.02-.46-.2-.06-.06-.14-.18a.5.5 0 0 0-.14-.18l-.36-.54q.04-.06-.06-.12-.1-.08-.1-.14-.4-.32-.4-.98a.5.5 0 0 1 .08-.16q.06-.1.08-.14.08-.06.22-.18a.6.6 0 0 1 .3-.16q.28-.2.46-.22.2.08.2.2 0 .08-.12.24l-.02.28q.16.08.36.08.1 0 .3-.04.4-.14 1.2-.5.16-.06.58-.26a7 7 0 0 1 .82-.32l.28-.14a.6.6 0 0 1 .38-.1.26.26 0 0 1 .16-.1q.12-.02.18-.04.1-.08.22-.2t.2-.18h.24q-.04-.12.24-.12h.08q.06-.02.16-.06a.4.4 0 0 1 .2-.06l.08.02.2-.06q.16-.04.28-.04l.12.02zM9.18 13.42l.04-.04q.16.08.28.08.06 0 .16-.02a.6.6 0 0 1 .28-.02v.02q-.2.1-.5.1a4 4 0 0 1-.34-.02 1.4 1.4 0 0 0-.34 0 .45.45 0 0 1-.2.04q-.06 0-.06-.02t.06-.08l.2.02q0-.08.06-.08t.14.04q.1.02.16.02.02 0 .06-.04m-1 .12.04-.04h.08q.08-.02.06.02a.33.33 0 0 1-.2.08h-.02v-.02zm-.1.04h.02zm-.48.04h.12q.12.02-.04.06-.14.02-.14-.02 0-.02.06-.04m-.96.2q.06 0 .02.06H6.6q0-.06.04-.06m-.28.06.04-.02q.14 0 .06.04l-.2.06q-.12.02-.24.02h-.04l-.02-.02q.16-.04.4-.08m-.52.06h.06a.32.32 0 0 1-.16.14 2 2 0 0 1-.24.04 1 1 0 0 0-.22.02l-.44.14q-.08-.06.02-.08.12-.04.16-.06l.78-.16zm-1.42.4h.06q.26-.08-.02-.04-.26.04-.36.04a1.3 1.3 0 0 1-.34.08l-.24.12q0 .08.04.08.06 0 .12-.04.08-.02.14-.04.4-.16.6-.2m-1.6.48h.04q-.1.1-.16.1l-.02-.02q0-.06.14-.08m-.46.18h-.02q0-.08.04-.1.06-.02.06.02t-.08.08m-.7.06.12-.04a.25.25 0 0 1-.1.06q-.06.04-.02-.02M28.1.04l.28.06q.06.02.26.1t.34.18q.02.18.1.52t.06.6q0 .04-.06.16-.04.12.04.16l-.28 1.02 1.36-.66q.38-.24.86-.44t.6-.26q.08-.32.48-.58.12 0 .24-.12l.3.14q.22.08.44.08h.26q.1.02.28.02h.22q.36 0 .54.08.02.04.08.14.06.08.14.1.02.08.16.28.14.18.1.32.04.38-.14.7a1 1 0 0 0-.02.24q0 .18-.12.24a6 6 0 0 1-.52.22q-.12.02-.3.08-.18.04-.26.04-.14 0-.2-.08l-.8.16v-.02q-1.12.32-2.26.92-.12.1-.44.22-.2.08-.38.18-.16.08-.16.18 0 .08.12.18.4.12.66.38.28.26.3.62-.02.02-.02.1 0 .06.02.14t.02.14q-.02.1-.04.22t-.02.3l.24-.16q.14-.04.38-.14a.9.9 0 0 1 .44-.08v.02a.6.6 0 0 0 .26-.1l.18-.12q.22-.22.46-.22.14 0 .2.04.18.22.3.26a.34.34 0 0 1 .14-.02q.1 0 .3.04l.8.24q.24.08.34.22.12.12.26.38.28.16.28.5 0 .26-.18.58a1.8 1.8 0 0 1-.38.52q-.12.02-.38.02a.9.9 0 0 1-.3-.04l-.46-.2a3 3 0 0 1-.54-.3l-.1-.02q-.14 0-.34.12-.48.34-1 .9.08.04.34.16.28.12.52.16.24.02.54-.04a5 5 0 0 1 .46-.1q.18.04.38.18l.3.18q.42.18.76.28a.34.34 0 0 1 .14-.02q.26 0 .56.22.02.02.08.1.08.08.08.16.02.06-.06.1l.3.42q-.02.099-.08.24a.7.7 0 0 0-.04.2q0 .12.1.2.04.219-.02.3-.24.2-.28.36-.24.38-.4.18l-.2.2a1.3 1.3 0 0 1-.4-.12 3 3 0 0 0-.32-.16l-.54-.2q-1.02-.36-1.64-.7a2.66 2.66 0 0 1-.98-.98 2 2 0 0 1-.08-.28q-.04-.2-.14-.24v1.16q-.04-.02-.02.06.02.06.02.08l-.02.02h.02q-.04.28-.04.42t.02.2q-.02.38-.02 1.14h-.02l.04.5v.42q0 .18-.02.26a1.3 1.3 0 0 1-.1.2q-.06.14-.04.26a.6.6 0 0 0-.04.12.7.7 0 0 1-.08.18q-.04.18-.12.36a7 7 0 0 0-.1.26V16q0 .08-.08.14-.06.08-.1.14-.04.12-.24.2t-.22.22q-.08-.3-.22-.44a.73.73 0 0 1-.36-.3 5 5 0 0 1-.24-.62.75.75 0 0 1-.16-.44.5.5 0 0 1 .04-.22 3 3 0 0 0-.1-.24.7.7 0 0 1-.04-.32.5.5 0 0 1 .08-.16q.06-.1.04-.18-.06-.06-.06-.12t.04-.14q.06-.08.08-.14.36-3.08.36-5.64v-.66q-.04-.6-.1-.88l-.24-.3a1 1 0 0 0-.32-.28q-.16.04-.52.18-.36.12-.68.14v-.02q-.4.14-.74.2-.24-.02-.34-.2a3 3 0 0 1-.22-.58 2 2 0 0 0-.1-.4 2 2 0 0 1-.06-.42q0-.08.04-.24.18-.22.68-.3l.46-.96q.04-.12.24-.6t.3-.94q.04-.32.04-.48 0-.1-.04-.3l-.16-.02q-.06 0-.22.04.02-.02.02-.08l-.02-.18q.08-.4.36-.46.12.02.28.06.18.04.28.04a.5.5 0 0 0 .22-.04zm-6.08 1.72q.06.02.18.1.14.08.2-.02.28.1.84.34.32.16.68.42.08.02.32.2.08.08.48.58.2.56.26.86.02.1.02.28t-.04.28l.02.02q-.18.54-.48 1.06-.28.52-.34.62-.36.6-.52.92.04.08.06.2.04.1.08.16t.12.06l1.04-2.22q.04-.2.08-.28l-.12.72q-.04.12-.14.44-.08.3-.12.56.02.02.02.08a.5.5 0 0 1-.04.18l-.06.12-.24.82q-.02.12-.06.4a1.1 1.1 0 0 1-.14.42l.02.02-.3 1.74q0 .08-.06.28-.04.2.06.22a6 6 0 0 1-.06.34q-.04.2-.04.32 0 .16.04.22.04-.1.2-.44t.24-.66a1 1 0 0 0 .02-.2q.02-.14.04-.16.04-.04.1.06a4 4 0 0 0-.1.3 1 1 0 0 0-.04.48h-.02l.02.02a8 8 0 0 1-.56 1.98q-.04.04-.18.22a.6.6 0 0 1-.3.22 2 2 0 0 1-.12.1q-.1.08-.2.06l-.12-.32a.3.3 0 0 0-.12-.04l-.18.02q-.08-.02-.3-.2a11 11 0 0 0-.36-.46q-.4-.44-.5-.72 0-.12-.02-.24t-.02-.24q0-.08.04-.24.08-.141.38-.54l.1-.58q.16-.88.18-1.34a.3.3 0 0 0-.1.02.3.3 0 0 1-.1-.02l-.08.02q-.06 0-.08-.06 0-.08-.04-.1v-.02a2 2 0 0 0-.38.2q-.24.14-.4.14a.37.37 0 0 1-.24-.08q.04-.06.12-.2a.5.5 0 0 0 .08-.24q0-.12-.12-.24a.3.3 0 0 1-.12.02q-.1 0-.3-.1h-.04q-.1 0-.12-.06a.8.8 0 0 1-.02-.18 1 1 0 0 0-.02-.2q-.16-.3-.24-.66-.06-.38-.08-.48a.5.5 0 0 1 .1-.22q.1-.1.14-.16.2-.16.58-.54.88-1.12 1.26-1.72.06-.12.2-.42.14-.32.2-.58l.02-.14a.6.6 0 0 0-.1-.32q-.24-.56-.2-.88a.5.5 0 0 0-.1-.18q-.08-.12-.06-.2.02-.02.06-.02.06 0 .1.02l.08.04zm8.54 7.02h-.02l.06.82q.14-.36.24-.54.12-.2.36-.28.06-.1.22-.34.18-.26.28-.52l-.3-.18-.24-.12a.8.8 0 0 0-.38-.1.7.7 0 0 0-.22.18q-.1.12-.16.18l.1.64z" fill="currentColor"/></svg>