<svg width="29" height="32" viewBox="0 0 29 32" fill="none" xmlns="http://www.w3.org/2000/svg">
  <path d="m15.552.432.216-.18Q16.092 0 16.344 0q.144.108.468.216.36.108.54.288.108-.144.252 0a2 2 0 0 0 .252.18q.072.036.468.18a.9.9 0 0 1 .576.432q.144.108.36.288.252.18.396.36t.18.432q.252.216.252.648v.18q-.144.072-.18.288-.036.18-.072.252-.432.864-.504 1.332-.072.108-.252.324a.7.7 0 0 0-.216.36q0 .108-.036.432 0 .288-.18.468v.252q0 .144-.072.252 0 .612-.108 1.224 0 .108.036.108.072 0 .108.036-.108.252-.144.648 0 .396-.036.612-.216.72-.288 1.728.144-.036.252-.216.144-.18.252-.288a1 1 0 0 0 .216-.108.35.35 0 0 1 .18-.072l.144.072q.108.18.324.108.252-.072.36-.072t.216.108a3.6 3.6 0 0 0 1.296.504q.252.072.756.144.936.324 1.404 1.62v.36a.73.73 0 0 1-.036.396q-.18.252-.576.36-.36.108-.576.18-.756.144-1.044.36-.576-.252-1.8-.396l-.756-.108q-.072 0-.108.108t-.072.108q-.252.54-.252 1.224 0 .504.108 1.08t.144.756q.144.468.18.828.036.216.144.792.144.576.324 1.008.036.144.108.108t.144-.18q.108-.18.18-.252.216-.432.288-.648.216-.36.504-1.152l-.252-.396q-.144 0-.18-.072 0-.108.108-.216.108-.144.144-.18-.072-.216-.36-.216h-.036l.18-.072-.54-.072q.504-.144.72-.324.072-.144.18-.432t.252-.468q.108-.036.252-.072t.36-.036q.072 0 .36.072.108.072.324.18a.74.74 0 0 1 .36.288V16.2q.144-.108.288-.036.144.036.324.216.18.144.324.252.432.36.576.612.108.54.648 1.116 0 .612-.288 1.044-.036.288-.324.648-.252.36-.324.54-.144.216-.072.288a2 2 0 0 0-.252.324 3 3 0 0 1-.18.324 5 5 0 0 0-.252.288.55.55 0 0 0-.18.396q-.072.108-.504.54-.216.036-.396.36-.144.288-.252.36a.92.92 0 0 0-.54.396q.108.144.288.468t.396.504q.36.504 1.368 1.224l.504.252q.576-.72 1.044-2.088l.288-.72q.252-.36.36-.756.108-.432.216-1.044.036-.396.18-.936 0-.252.108 0t.144-.036v.684h.036l.144-.468v.396q.216-.144.288-.468.072-.36.108-.504 0 .612-.036.9 0 1.224-.072 1.836-.072 0-.072-.036l-.036.036a.8.8 0 0 1 .036.252q0 .144.108.144h.036q.252-1.44.324-2.988.144-.072.108.144v.216q.216.036.216-.36v-.576q.144-.036.144.144v.324q0 1.404.036 2.124l.036.036q.036-.432.036-1.296v-1.26h.036q.108.324.108.756.036.396.036.612.18.612.18 1.908l.072 1.08q.108.108.144.18.072.072-.036 0-.036.18 0 .432.036.216.036.36.144.108.144.36l-.036.432v.072q.108.216.108.72 0 .252-.036.612a3 3 0 0 0 0 .648q.072.36.072.612 0 .144-.072.504-.072.936-.252 1.368.216-.108.108.144a1.6 1.6 0 0 0-.108.288q-.36.36-.684.54a1.1 1.1 0 0 1-.324.072l-.504-.036q-.324-.108-1.116-.18-.252 0-.756-.072a4.3 4.3 0 0 1-.612-.468q-.216-.036-.432-.252a2 2 0 0 0-.324-.324 10 10 0 0 0-.756-.468 22 22 0 0 1-1.908-1.296 8.4 8.4 0 0 1-1.404-1.368l-.432-.54q-.252-.36-.432-.648-.54.036-1.296.36-.792.144-1.152.144a.8.8 0 0 0-.576 0q-.288.108-.324.144a.9.9 0 0 0-.54.108 2.4 2.4 0 0 1-.432.18q-.216.108-.468.144a3 3 0 0 1-.324.036q-.144.072-.252.108a.8.8 0 0 1-.216.144 1.5 1.5 0 0 0-.216-.144 1.2 1.2 0 0 0-.432-.072h-.18q.036-.216.36-.288t.468-.144l.828-.576q1.548-1.08 2.268-1.476a12 12 0 0 0 1.332-1.188 2.8 2.8 0 0 0-.216-.756 40 40 0 0 1-.216-.72l-.252-1.188q-.432-1.944-.576-2.916 0-.54-.144-1.62-.072-.54-.144-1.62a3.7 3.7 0 0 0-.792.18 5 5 0 0 1-.576.18q-.576.108-1.476.468-.396.216-.54.468-.324.288.036.108t.648-.396l-.576.576v.036q.288-.036.18.108-.072.108-.396.36a3.6 3.6 0 0 0-.432.432l-.18.324q-.144-.036-.216.072a.9.9 0 0 0-.108.324 2 2 0 0 1-.072.324 30 30 0 0 0-.072 1.728l.036 2.268q.036.18.036.504l-.036.972q-.036.252-.072.828a3 3 0 0 1-.18.9q-.18.18-.252.612a22 22 0 0 1-.108.612 5 5 0 0 0-.216.684 2.5 2.5 0 0 1-.288.72q-.144.108-.396.54-.072.072-.144.072.108-.288-.144-.288t-.468.216a.8.8 0 0 1-.144.18.4.4 0 0 0-.072.216v.036a1.6 1.6 0 0 1-.288.288q-.144.18-.252.252-.144.036-.396.216-.216.216-.36.252a.34.34 0 0 1-.324-.108l-.18-.18a.8.8 0 0 1-.18-.144.4.4 0 0 0-.216-.072H6.12a.48.48 0 0 1-.18-.396l.036-.432q0-.036-.072-.216a.34.34 0 0 0-.252-.18 1.1 1.1 0 0 0-.288-.432 5 5 0 0 1-.288-.252q-.252-.36-.324-.648a2 2 0 0 1-.396-.18 2 2 0 0 1-.252-.144 4 4 0 0 1-.252-.288 1.6 1.6 0 0 0-.324-.36.4.4 0 0 0-.144-.144q-.072-.072-.072-.108l.036-.072q.144.036.468.036.36 0 .36-.072 0-.036-.18-.144-.108-.216-.252-.216-.18 0-.54.252-.324.216-.468.252-.216 0-.468.072a2.4 2.4 0 0 0-.324.108Q.756 25.992.036 24.3a.9.9 0 0 1 0-.36q.072-.252.072-.324.144-.18.324-.18.216 0 .54.252.288.072.432.072.252 0 .468-.18 1.296-.684 2.448-1.584t2.808-2.34l.036-1.8q-.468.288-.828.36-.252.252-.756.468-.468.216-.756.36a47 47 0 0 0-1.044.324 7.7 7.7 0 0 0-1.332.504.53.53 0 0 1-.324-.108 4 4 0 0 1-.252-.288 2 2 0 0 1-.18-.252 4.3 4.3 0 0 0-.288-.684q-.432-1.008-.54-1.548a3 3 0 0 1-.072-.576q0-.18.036-.252.216.072.432.432.144.108.108-.036a1.5 1.5 0 0 1-.036-.252l-.216-.36.216-.216q.144-.18.252-.18l.108.036q.144.432.288.684a.6.6 0 0 0 .36.108q.18 0 .324-.036t.324-.036q1.332-.36 2.772-.936l.504-.252q.36-.18.684-.252.108-.144.108-.468 0-.216-.036-.432a3 3 0 0 1-.036-.468 2.6 2.6 0 0 1-.072-.432q-.036-.36-.288-.504l-.792-.036q-.108-.144 0-.324.108-.216.144-.324.108-.18.612-.684.108-.288.396-.288.072 0 .504.108.756.072 1.188.504.252.144.432.216l.324.108q.324.396.504.468.468.288.936.972 2.448-.864 4.068-1.152.36-.108.36-.576 0-.396-.072-1.188a34 34 0 0 1-.072-1.872q0-.828.108-1.62-.036-.72.252-2.232l.144-.936q.072-.72.072-1.116 0-.324-.036-.504-.108-.072-.36-.072h-.252q-.252-.036-.252-.288 0-.18.072-.432.108-.288.144-.468zM11.52 2.16l.18-.036q.216-.072.324-.072l.252.036q.108.072.288.252.18.144.36.18.288 0 .612.216.072.288.324.576.288.252.396.36.072.144.252.576a4.4 4.4 0 0 1 .36.9q.144.468.108.972a1.3 1.3 0 0 1-.288.54 5 5 0 0 0-.288.36q-.252.18-.576.36-.072.252-.144.144-.036-.108-.108-.108-.072-.036-.18.072a5 5 0 0 1-1.224.612q-.648.18-1.62.396l-.54-.036q-.252 0-.36.072-1.44.684-1.656.792-.108-.108-.108 0 0 .072-.108.144a.9.9 0 0 1-.36 0 1.2 1.2 0 0 0-.36-.072q-.252 0-.36.252-.072-.144-.18-.108a.8.8 0 0 0-.18.144 1.4 1.4 0 0 1-.216.18q-.54.18-.936.612-.324.18-.612.504a5 5 0 0 0-.324.396q-.036 0-.108.072-.072.036-.108 0 .54-.684 1.296-1.404l1.008-1.008A40 40 0 0 0 8.028 7.38a5.5 5.5 0 0 0 1.08-1.008q.216-.252.648-.612a3.5 3.5 0 0 0 .648-.756q.108-.108.648-.828.108-.252-.216-.252-.18 0-.396.072a2 2 0 0 1-.36.036q-.72.108-1.224.468.072-.144.324-.432.252-.324.324-.54-.18 0-.396.072t-.288.108a.9.9 0 0 1 .216-.36q.18-.144.432-.252.288-.144.468-.288.144-.036.576-.396.18-.072.468-.108.324-.072.54-.144m10.512 2.376.144-.036q.324-.108.648-.108.792.288 1.116.504.036 0 .216.036t.252.144q.612.036 1.764.252.36.252.72.648l.504.504q.036.072.108.288.072.18.072.36-.036.108-.144.324a.8.8 0 0 1-.18.324.5.5 0 0 1-.144.36.9.9 0 0 1-.36.252 2.4 2.4 0 0 0-.36.18l-.288.144a.8.8 0 0 1-.288.072h-.072q-.072-.18-.36-.18l-.396.036-.576-.18q-.108.144-.324.144t-.648-.252a4 4 0 0 1-.468-.108 1.2 1.2 0 0 0-.36-.072.6.6 0 0 0-.252.036.6.6 0 0 0-.18.18q-.072.072-.108.072t-.144-.108q-.18.072-.36.18-.144.072-.252.144-.54.54-1.008.756-.072 0-.072-.036a3 3 0 0 0-.576.18.8.8 0 0 0-.18.144.53.53 0 0 1-.252.144q.108-.144.504-.576.432-.432.828-.972.396-.576.54-1.224a.24.24 0 0 0-.108-.216.5.5 0 0 0-.252-.108 3 3 0 0 1-.288-.072l-.612-.576q-.072-.216.072-.288.18-.108.54-.18t.468-.144q.396-.324.468-.504.396-.396.648-.468M25.56 9h.036zM5.976 12.132H5.94q-.108.108-.036.144.072-.036.072-.144m7.596.612-.036-.036q-.432 0-.612.252.396 0 .648-.216m-1.044.36.144-.072q.144-.144-.072-.072-.18.036-.216.144zm-.216 0-.072-.036q-.072 0-.288.072-.216.036-.216.108l.036.036a.64.64 0 0 0 .288-.072q.18-.072.252-.108m-.864.324.072-.072v-.036q-.144 0-.504.144-.144.144.108.072t.324-.108m2.52 1.548q1.008-.216 1.404-.432v-.072a8 8 0 0 0-1.008.18q-.252.072-.756.252-.468.18-.864.144l-.036-.036q-.54.324-1.764.756l-.108.108q-.108.072 0 .144.288-.144.252-.036-.144.036-.252.252a.7.7 0 0 0-.108.36q0 .108.072.108.036 0 .108-.072.288-.18.504-.396.432-.252.684-.54a3 3 0 0 0-.396.144.85.85 0 0 1-.36.108h-.072q.072-.18.324-.252a6 6 0 0 0 .396-.108q.864-.216 1.188-.432.468-.144.792-.18m-2.88.504h-.036zm.612.864-.108.036q-.108.18-.072.144a.6.6 0 0 0 .18-.18M6.984 17.82l.072-.036q.18-.252-.036-.216-.216 0-.396.216l-1.08.648q.36.036.792-.216a7 7 0 0 1 .648-.396m-1.764.828q.036 0 .036-.072h-.072q0 .072.036.072m20.664.144v-.036h.036q0 .288-.072.792l-.144.756q-.144.108-.108-.108.072-.216.072-.324.18-.54.216-1.08m.9.792v-.216l.036.036-.036.9a.6.6 0 0 1-.036-.36q.036-.216.036-.36m-.324-.036.036-.072q.108-.108.144.108t-.036.216l-.036-.036q-.108.108-.144.036 0-.108.036-.252m-.396.468h.072l.036.036q0 .144-.072.144t-.108-.072.072-.108m-.072.504.036-.108h.036a.4.4 0 0 1-.036.18q-.036.072-.036-.072m-.54 1.224.072.108h.036q.036-.072-.072-.144-.072-.072-.036.036M7.092 24.12v-.216q.072-.936.072-1.44-.648.72-1.008 1.008a3.3 3.3 0 0 1-.576.576q-.36.252-.504.36l-.288.324q1.404.576 2.052.72.216-.252.216-.684t.036-.648m14.04-.36.144-.072q-.036.036-.108.144-.072.072-.036-.072m-16.56 1.008v.072h-.036q0 .072.036.072.036-.036.036-.072.036-.072-.036-.072m0 .54q-.072-.252-.288-.252h-.108q-.036.108.072.216a.4.4 0 0 0 .216.072zm.396.216v-.108q-.108-.072-.108 0l.072.144q.072.072.036-.036m.18.108.072.072.036.036q.072 0 .072-.072a.3.3 0 0 1-.108-.036q-.036-.072-.072 0m-.432.504v.036q.108.036.072-.036-.036-.108-.072 0M7.2 30.42h.108q.108.036.036.036-.072.036-.18 0-.072 0 .036-.036" fill="currentColor"/>
</svg>
